<mxfile host="app.diagrams.net" modified="2023-06-12T08:10:09.533Z" agent="Mozilla/5.0 (Macintosh; Intel Mac OS X 10_15_7) AppleWebKit/605.1.15 (KHTML, like Gecko) Version/14.1.2 Safari/605.1.15" etag="z-HBdDMT_V9AKp0X1V3s" version="21.3.4" type="device">
  <diagram name="Page-1" id="2kg5-HkzBw4idW8L5xDF">
    <mxGraphModel dx="838" dy="563" grid="1" gridSize="10" guides="1" tooltips="1" connect="1" arrows="1" fold="1" page="1" pageScale="1" pageWidth="827" pageHeight="1169" math="0" shadow="0">
      <root>
        <mxCell id="0" />
        <mxCell id="1" parent="0" />
        <mxCell id="Xj_rjUO3NUVVxdjrDqMI-4" value="1. Initial Statement sent by Prover" style="edgeStyle=orthogonalEdgeStyle;rounded=0;orthogonalLoop=1;jettySize=auto;html=1;exitX=1;exitY=0.25;exitDx=0;exitDy=0;entryX=0;entryY=0.25;entryDx=0;entryDy=0;fontStyle=1;fontSize=13;strokeWidth=3;" edge="1" parent="1" source="Xj_rjUO3NUVVxdjrDqMI-1" target="Xj_rjUO3NUVVxdjrDqMI-3">
          <mxGeometry relative="1" as="geometry" />
        </mxCell>
        <mxCell id="Xj_rjUO3NUVVxdjrDqMI-1" value="Prover" style="rounded=1;whiteSpace=wrap;html=1;fillColor=#dae8fc;strokeColor=#6c8ebf;fontStyle=1;fontSize=15;labelBorderColor=none;strokeWidth=5;" vertex="1" parent="1">
          <mxGeometry x="10" y="200" width="190" height="230" as="geometry" />
        </mxCell>
        <mxCell id="Xj_rjUO3NUVVxdjrDqMI-5" value="3. Challenge issued by Verifier" style="edgeStyle=orthogonalEdgeStyle;rounded=0;orthogonalLoop=1;jettySize=auto;html=1;exitX=0.011;exitY=0.596;exitDx=0;exitDy=0;exitPerimeter=0;fontStyle=1;fontSize=13;strokeWidth=3;" edge="1" parent="1" source="Xj_rjUO3NUVVxdjrDqMI-3">
          <mxGeometry relative="1" as="geometry">
            <mxPoint x="210" y="337" as="targetPoint" />
          </mxGeometry>
        </mxCell>
        <mxCell id="Xj_rjUO3NUVVxdjrDqMI-3" value="Verifier" style="rounded=1;whiteSpace=wrap;html=1;fillColor=#f8cecc;strokeColor=#b85450;fontStyle=1;fontSize=15;strokeWidth=5;" vertex="1" parent="1">
          <mxGeometry x="630" y="200" width="190" height="230" as="geometry" />
        </mxCell>
        <mxCell id="Xj_rjUO3NUVVxdjrDqMI-13" value="4. Prover responds to Challenge" style="edgeStyle=orthogonalEdgeStyle;rounded=0;orthogonalLoop=1;jettySize=auto;html=1;exitX=1;exitY=0.75;exitDx=0;exitDy=0;entryX=0;entryY=0.75;entryDx=0;entryDy=0;fontStyle=1;fontSize=13;strokeWidth=3;" edge="1" parent="1" source="Xj_rjUO3NUVVxdjrDqMI-1" target="Xj_rjUO3NUVVxdjrDqMI-3">
          <mxGeometry relative="1" as="geometry">
            <mxPoint x="200" y="340" as="sourcePoint" />
            <mxPoint x="630" y="340" as="targetPoint" />
            <mxPoint as="offset" />
          </mxGeometry>
        </mxCell>
        <mxCell id="Xj_rjUO3NUVVxdjrDqMI-14" value="2. Random Secret/Statement sent by Prover&amp;nbsp;" style="edgeStyle=orthogonalEdgeStyle;rounded=0;orthogonalLoop=1;jettySize=auto;html=1;exitX=1.005;exitY=0.448;exitDx=0;exitDy=0;entryX=0.005;entryY=0.452;entryDx=0;entryDy=0;entryPerimeter=0;exitPerimeter=0;fontStyle=1;fontSize=13;strokeWidth=3;" edge="1" parent="1" source="Xj_rjUO3NUVVxdjrDqMI-1" target="Xj_rjUO3NUVVxdjrDqMI-3">
          <mxGeometry relative="1" as="geometry">
            <mxPoint x="200" y="290" as="sourcePoint" />
            <mxPoint x="630" y="290" as="targetPoint" />
          </mxGeometry>
        </mxCell>
        <mxCell id="Xj_rjUO3NUVVxdjrDqMI-15" value="5. Accept/Reject based on response" style="ellipse;whiteSpace=wrap;html=1;fontStyle=1;fontSize=13;strokeWidth=2;" vertex="1" parent="1">
          <mxGeometry x="677.5" y="330" width="95" height="70" as="geometry" />
        </mxCell>
        <mxCell id="Xj_rjUO3NUVVxdjrDqMI-17" style="edgeStyle=orthogonalEdgeStyle;rounded=0;orthogonalLoop=1;jettySize=auto;html=1;exitX=1;exitY=0.5;exitDx=0;exitDy=0;entryX=0.5;entryY=1;entryDx=0;entryDy=0;strokeWidth=3;" edge="1" parent="1" source="Xj_rjUO3NUVVxdjrDqMI-15" target="Xj_rjUO3NUVVxdjrDqMI-15">
          <mxGeometry relative="1" as="geometry" />
        </mxCell>
        <mxCell id="Xj_rjUO3NUVVxdjrDqMI-21" value="Zero-Knowledge Proof Protocol Flow" style="text;html=1;align=center;verticalAlign=middle;whiteSpace=wrap;rounded=0;fillColor=#e51400;strokeColor=#B20000;fontStyle=1;fontSize=16;fontColor=#ffffff;" vertex="1" parent="1">
          <mxGeometry y="470" width="830" height="40" as="geometry" />
        </mxCell>
      </root>
    </mxGraphModel>
  </diagram>
</mxfile>
